<svg xmlns="http://www.w3.org/2000/svg" version="1.1" xmlns:xlink="http://www.w3.org/1999/xlink" xmlns:svgjs="http://svgjs.com/svgjs" width="1440" height="560" preserveAspectRatio="none" viewBox="0 0 1440 560"><g mask="url(&quot;#SvgjsMask1016&quot;)" fill="none"><path d="M 0,61 C 57.6,71.6 172.8,122.4 288,114 C 403.2,105.6 460.8,23 576,19 C 691.2,15 748.8,89 864,94 C 979.2,99 1036.8,42 1152,44 C 1267.2,46 1382.4,92 1440,104L1440 560L0 560z" fill="rgba(145, 105, 192, 1)"></path><path d="M 0,337 C 36,324.2 108,279.8 180,273 C 252,266.2 288,315.2 360,303 C 432,290.8 468,205.6 540,212 C 612,218.4 648,327 720,335 C 792,343 828,261.4 900,252 C 972,242.6 1008,300.4 1080,288 C 1152,275.6 1188,180.4 1260,190 C 1332,199.6 1404,306.8 1440,336L1440 560L0 560z" fill="rgba(197, 0, 143, 1)"></path><path d="M 0,532 C 41.2,503.6 123.6,396.4 206,390 C 288.4,383.6 329.6,500.4 412,500 C 494.4,499.6 535.6,383.2 618,388 C 700.4,392.8 741.6,517 824,524 C 906.4,531 947.6,431 1030,423 C 1112.4,415 1154,490.6 1236,484 C 1318,477.4 1399.2,408.8 1440,390L1440 560L0 560z" fill="rgba(131, 0, 95, 1)"></path></g><defs><mask id="SvgjsMask1016"><rect width="1440" height="560" fill="#ffffff"></rect></mask></defs></svg>