<svg xmlns="http://www.w3.org/2000/svg" version="1.1" width="1920" height="1080" preserveAspectRatio="none" viewBox="0 0 640 480">
    <g mask="url(&quot;#SvgjsMask1020&quot;)" fill="none">
        <path d="M12 120C12 114.66 0.58 122.53 0 116.76C-5.42 62.53 -26.02 32.36 0 0C20.93 -26.02 59.18 -18.28 93.91 0C119.18 13.3 94.22 58.35 120 63.16C167.26 71.98 185.4 52.37 240 27.27C254.1 20.79 243.01 3.27 257.39 0C303.01 -10.37 308.69 0 360 0C420 0 420 0 480 0C538.38 0 596.76 -24.18 596.76 0C596.76 34.2 538.46 58.46 480 116.76C478.29 118.46 476.42 118.35 476.42 120C476.42 121.71 478.29 121.66 480 123.48C534.41 181.66 559.1 172.57 588.65 240C610.92 290.83 578.81 303.33 583.64 360C584.48 369.91 590.23 373.17 600 373.17C630.18 373.17 658.2 382.84 663.53 360C673.75 316.25 638.06 301.03 631.11 240C624.39 181.03 629.03 179.45 636.19 120C643.48 59.45 631.88 40.26 660 0C673.79 -19.74 710 -20 720 0C740 40 720 60 720 120C720 180 720 180 720 240C720 300 720 300 720 360C720 420 750 450 720 480C690 510 660 480 600 480C540 480 540 480 480 480C420 480 420 480 360 480C315 480 304.38 497.19 270 480C244.38 467.19 266.14 424.13 240 420C191.14 412.29 176.16 432.29 120 456.32C106.05 462.29 114.05 477.18 99.78 480C54.05 489.02 22.65 507.24 0 480C-27.24 447.24 0 420 0 360C0 300 0 300 0 240C0 210 -2.97 209.71 0 180C3.03 149.71 12 146.28 12 120" stroke="rgba(204, 11, 160, 1)" stroke-width="2"></path>
        <path d="M240 233.33C233.23 233.93 228 235.48 228 240C228 246.32 230.9 254.24 240 255C296.9 259.76 301.98 257.68 360 251.05C367.65 250.18 371.35 245.6 371.35 240C371.35 234.24 367.84 228.73 360 228.33C302.16 225.39 299.23 228.09 240 233.33" stroke="rgba(45, 109, 201, 1)" stroke-width="2"></path>
        <path d="M28.7 0C28.7 10.97 8.07 35.68 0 35.68C-6.28 35.68 -7.95 9.89 0 0C6.4 -7.95 28.7 -6.87 28.7 0" stroke="rgba(204, 11, 160, 1)" stroke-width="2"></path>
        <path d="M196.8 120C196.8 106.75 224.13 113.75 240 95.45C276.16 53.75 261.46 31.35 300.87 0C321.46 -16.37 330.43 0 360 0C420 0 420 0 480 0C518.11 0 556.22 -15.79 556.22 0C556.22 22.32 518.81 38.84 480 76.22C456.52 98.84 431.64 97.69 431.64 120C431.64 143.06 456.53 142.78 480 166.96C514.77 202.78 534.92 196.24 548.11 240C564.01 292.76 522.54 308.84 538.18 360C548.49 393.72 567.47 387.14 600 409.76C653.77 447.14 710.77 460.96 710.77 480C710.77 496.08 655.38 480 600 480C551.18 480 545.56 491.05 502.37 480C485.56 475.7 494.01 449.3 480 449.3C459.25 449.3 459 473.31 432.86 480C399 488.66 396.43 480 360 480C341.78 480 333.83 492.83 323.57 480C285.83 432.83 254.33 410.27 264 360C272.55 315.54 314.11 327.77 360 290.53C388.05 267.77 411.89 265.61 411.89 240C411.89 213.68 391.99 203.42 360 186.67C306.05 158.42 297.5 173.49 240 150C215.9 140.15 196.8 134.03 196.8 120" stroke="rgba(204, 11, 160, 1)" stroke-width="2"></path>
        <path d="M683.81 120C683.81 90.82 710.12 65.71 720 65.71C728.22 65.71 720 92.85 720 120C720 167.5 728.74 215 720 215C710.65 215 683.81 165.46 683.81 120" stroke="rgba(45, 109, 201, 1)" stroke-width="2"></path>
        <path d="M14.63 360C67.91 310.46 69.03 259.53 120 259.53C167.67 259.53 211.91 316.15 211.91 360C211.91 394.8 161.23 382.91 120 416.84C88.31 442.91 99.49 462.41 66.07 480C39.49 493.99 12.47 500.56 0 480C-20.56 446.12 -6.26 422.45 0 371.11C1.06 362.45 7.91 366.25 14.63 360" stroke="rgba(45, 109, 201, 1)" stroke-width="2"></path>
        <path d="M301.94 120C296.71 71.56 318.5 53.43 344.35 0C347.53 -6.57 352.17 0 360 0C420 0 420 0 480 0C497.84 0 515.68 -7.39 515.68 0C515.68 10.45 498.46 18.49 480 35.68C434.05 78.49 433.3 77.7 386.87 120C373.3 132.36 375.6 145 360 145C333.13 145 304.54 144.06 301.94 120" stroke="rgba(120, 41, 174, 1)" stroke-width="2"></path>
        <path d="M452.43 240C466.75 225.73 466.22 210.43 480 210.43C493.78 210.43 505.98 221.26 507.57 240C512.34 296.05 504.29 301.51 492.73 360C490.5 371.28 489.69 373.37 480 379.53C423.32 415.59 407.78 450.22 360 444.44C327.06 440.45 318.55 397.06 318.55 360C318.55 339.84 340.99 347.04 360 330C407.93 287.04 406.75 285.52 452.43 240" stroke="rgba(204, 11, 160, 1)" stroke-width="2"></path>
        <path d="M87.8 360C87.8 346.81 104.42 329.3 120 329.3C134.57 329.3 148.09 346.6 148.09 360C148.09 370.64 134.3 377.37 120 377.37C104.16 377.37 87.8 370.85 87.8 360" stroke="rgba(204, 11, 160, 1)" stroke-width="2"></path>
        <path d="M0 426.67C8.72 426.67 32.36 462.44 32.36 480C32.36 489.11 6.11 490.07 0 480C-10.07 463.4 -7.46 426.67 0 426.67" stroke="rgba(120, 41, 174, 1)" stroke-width="2"></path>
        <path d="M553.22 480C553.22 470.71 576.12 446.34 600 446.34C626.05 446.34 653.08 470.88 653.08 480C653.08 487.71 626.54 480 600 480C576.61 480 553.22 487.54 553.22 480" stroke="rgba(204, 11, 160, 1)" stroke-width="2"></path>
    </g>
    <defs>
        <mask id="SvgjsMask1020">
            <rect width="640" height="480" fill="#ffffff"></rect>
        </mask>
    </defs>
</svg>